<?xml version="1.0" standalone="no"?>
<!DOCTYPE svg PUBLIC "-//W3C//DTD SVG 20010904//EN"
 "http://www.w3.org/TR/2001/REC-SVG-20010904/DTD/svg10.dtd">
<svg version="1.0" xmlns="http://www.w3.org/2000/svg"
 width="335.000000pt" height="150.000000pt" viewBox="0 0 335.000000 150.000000"
 preserveAspectRatio="xMidYMid meet">

<g transform="translate(0.000000,150.000000) scale(0.100000,-0.100000)"
fill="#000000" stroke="none">
<path d="M960 1370 c0 -116 1 -121 23 -129 30 -12 63 -49 82 -93 13 -31 15
-95 15 -395 l0 -358 120 0 120 0 0 356 c0 319 -2 364 -19 431 -49 190 -133
273 -303 303 l-38 6 0 -121z"/>
<path d="M0 930 l0 -530 125 0 125 0 0 35 c0 19 3 35 6 35 3 0 17 -14 31 -30
14 -17 46 -43 72 -58 39 -23 57 -27 121 -26 256 2 419 230 356 499 -22 90 -50
149 -98 201 -111 120 -294 137 -422 39 -25 -19 -46 -32 -46 -27 -1 4 0 94 0
200 l1 192 -136 0 -135 0 0 -530z m519 -21 c79 -44 113 -147 73 -225 -49 -96
-142 -130 -232 -84 -57 29 -84 73 -88 145 -3 53 0 66 26 106 16 25 44 53 63
62 47 23 113 21 158 -4z"/>
<path d="M1825 1140 c-163 -33 -279 -125 -319 -254 -24 -76 -18 -197 14 -281
73 -190 320 -280 562 -205 152 47 245 148 267 291 26 165 -47 331 -177 402
-91 49 -236 69 -347 47z m175 -240 c61 -31 85 -73 85 -150 0 -77 -24 -119 -85
-150 -75 -38 -149 -22 -208 44 -55 63 -55 149 1 213 56 64 134 80 207 43z"/>
<path d="M2740 1131 c-77 -25 -109 -43 -152 -88 -161 -166 -114 -519 82 -618
121 -61 267 -51 364 27 l38 31 -3 -81 c-3 -62 -9 -87 -25 -108 -35 -48 -70
-67 -129 -72 l-55 -4 0 -109 0 -109 58 0 c175 1 317 81 378 213 l29 62 3 438
3 437 -127 0 -127 0 5 -50 c3 -27 3 -50 1 -50 -3 0 -23 16 -46 35 -74 63 -189
81 -297 46z m278 -228 c49 -36 72 -81 72 -140 0 -60 -15 -95 -57 -135 -51 -48
-127 -62 -182 -34 -42 22 -89 81 -97 121 -14 75 22 154 90 196 41 26 134 22
174 -8z"/>
</g>
</svg>
